<?xml version="1.0" encoding="UTF-8"?>
<svg width="155px" height="41px" viewBox="0 0 155 41" version="1.1" xmlns="http://www.w3.org/2000/svg" xmlns:xlink="http://www.w3.org/1999/xlink">
    <title>Group</title>
    <defs>
        <path d="M13.5839287,0 L3.18994409,7.08337747 C0.358927414,9.33572374 -0.58773286,12.1204946 0.349963264,15.43769 C0.482050938,15.8721494 0.887691284,17.4288484 2.91563317,18.8709706 C3.60669581,19.3624032 5.11575574,20.0250572 7.44281295,20.8589325 L7.3897946,20.8941512 L2.42675009,24.1909762 C0.237514662,25.9418473 -0.119442412,28.1500164 1.35587887,30.8154835 C2.62976647,32.458678 5.0005646,32.9056476 6.88386368,32.1807926 C8.13939641,31.6975559 11.24798,29.6427428 16.2096143,26.0163531 C17.8259196,24.1414205 18.4894047,22.0961232 18.2000695,19.880461 C17.7558154,17.1763215 15.9696969,15.221631 12.841714,14.0163895 L10.711556,13.1132168 L18.4112678,7.62587187 L13.5839287,0 Z" id="path-1"></path>
        <path d="M5.26526834,5.64620713 C3.84528054,7.85777888 4.15541004,9.71391552 6.19565681,11.214617 C8.40726956,12.2132909 9.89198,12.858777 10.6497881,13.1510755 L15.3008865,14.0746758 L18.4112678,7.62587187 C15.3284772,2.75698804 13.7193642,0.215030753 13.5839287,0 C13.3711179,0.153126526 10.5982311,2.03519557 5.26526834,5.64620713 Z" id="path-3"></path>
        <path d="M7.29269884,20.8710778 L12.1155092,22.957568 C13.9608646,24.39961 14.1891604,26.1296836 12.8003964,28.1477889 C11.4116325,30.1658941 10.1020507,31.4318758 8.87165109,31.945734 C5.57349179,33.0763346 3.92441214,33.6416349 3.92441214,33.6416349 C3.92441214,33.6416349 2.54696223,32.6954556 -0.207937592,30.803097 C-0.766164732,27.4602565 -0.766164732,25.6988864 -0.207937592,25.5189867 C0.629403118,25.2491372 2.57194698,22.4665342 3.09700031,22.1715449 C3.44703586,21.9748853 4.84560204,21.5413963 7.29269884,20.8710778 Z" id="path-4"></path>
        <path d="M20.3920624,6.92756197 L25.3920624,13.5942286 C26.0548041,14.4778842 25.875718,15.7314869 24.9920624,16.3942286 C24.6458701,16.6538729 24.2248028,16.7942286 23.7920624,16.7942286 L13.7920624,16.7942286 C12.6874929,16.7942286 11.7920624,15.8987981 11.7920624,14.7942286 C11.7920624,14.3614882 11.9324182,13.940421 12.1920624,13.5942286 L17.1920624,6.92756197 C17.8548041,6.04390637 19.1084068,5.86482027 19.9920624,6.52756197 C20.1436737,6.64127047 20.2783539,6.77595064 20.3920624,6.92756197 Z" id="path-5"></path>
    </defs>
    <g id="Timeline" stroke="none" stroke-width="1" fill="none" fill-rule="evenodd">
        <g id="Sneat-Dashboard" transform="translate(-26.000000, -23.000000)">
            <g id="Group" transform="translate(26.207938, 23.205771)">
                <text id="crisissim" font-family="PublicSans-Bold, Public Sans" font-size="30" font-weight="bold" letter-spacing="-0.478022143" fill="#566A7F">
                    <tspan x="31.7920624" y="33.7942286">crisissim</tspan>
                </text>
                <g id="Icon">
                    <g id="Mask" transform="translate(0.000000, 8.152594)">
                        <mask id="mask-2" fill="white">
                            <use xlink:href="#path-1"></use>
                        </mask>
                        <use fill="#696CFF" xlink:href="#path-1"></use>
                        <g id="Path-3" mask="url(#mask-2)">
                            <use fill="#696CFF" xlink:href="#path-3"></use>
                            <use fill-opacity="0.2" fill="#FFFFFF" xlink:href="#path-3"></use>
                        </g>
                        <g id="Path-4" mask="url(#mask-2)">
                            <use fill="#696CFF" xlink:href="#path-4"></use>
                            <use fill-opacity="0.2" fill="#FFFFFF" xlink:href="#path-4"></use>
                        </g>
                    </g>
                    <g id="Triangle" transform="translate(18.792062, 10.794229) rotate(-300.000000) translate(-18.792062, -10.794229) ">
                        <use fill="#696CFF" xlink:href="#path-5"></use>
                        <use fill-opacity="0.2" fill="#FFFFFF" xlink:href="#path-5"></use>
                    </g>
                </g>
            </g>
        </g>
    </g>
</svg>